<svg viewBox="0 0 14 11" xmlns="http://www.w3.org/2000/svg">
    <path d="M11.739 4.38793L4.65699 4.38793C4.49495 4.38793 4.33954 4.4523 4.22495 4.56689C4.11037 4.68147 4.04599 4.83688 4.04599 4.99893C4.04599 5.16098 4.11037 5.31639 4.22495 5.43098C4.33954 5.54556 4.49495 5.60993 4.65699 5.60993L11.739 5.60993L10.949 6.39993C10.891 6.45637 10.8447 6.52378 10.8129 6.59824C10.7812 6.67271 10.7645 6.75275 10.764 6.8337C10.7634 6.91466 10.7789 6.99491 10.8096 7.06982C10.8404 7.14472 10.8857 7.21277 10.9429 7.27001C11.0002 7.32726 11.0682 7.37256 11.1431 7.40327C11.218 7.43399 11.2983 7.44953 11.3792 7.44896C11.4602 7.44839 11.5402 7.43174 11.6147 7.39998C11.6891 7.36822 11.7566 7.32197 11.813 7.26393L13.647 5.43193C13.661 5.41793 13.675 5.40293 13.687 5.38793L13.696 5.37593C13.705 5.36393 13.715 5.35193 13.723 5.33993L13.73 5.32893C13.738 5.31593 13.747 5.30293 13.754 5.28893V5.28093C13.762 5.26593 13.769 5.25093 13.776 5.23493V5.22893C13.783 5.21293 13.789 5.19593 13.794 5.17893V5.17193C13.794 5.15493 13.803 5.13793 13.807 5.12093C13.811 5.10393 13.807 5.10994 13.807 5.10493C13.807 5.09993 13.826 5.07493 13.826 5.06093C13.8301 5.02037 13.8301 4.9795 13.826 4.93893C13.826 4.92393 13.826 4.90993 13.819 4.89493C13.812 4.87993 13.819 4.88493 13.819 4.87993C13.819 4.87493 13.811 4.84493 13.806 4.82793V4.82193C13.801 4.80493 13.795 4.78793 13.788 4.77093V4.76593C13.781 4.74993 13.774 4.73493 13.766 4.71993V4.71193C13.759 4.69793 13.75 4.68493 13.742 4.67093L13.735 4.65993C13.727 4.64693 13.717 4.63493 13.708 4.62393L13.699 4.61193C13.686 4.59693 13.673 4.58193 13.659 4.56793L11.825 2.73393C11.7686 2.67589 11.7011 2.62965 11.6267 2.59789C11.5522 2.56612 11.4722 2.54947 11.3912 2.5489C11.3103 2.54834 11.23 2.56386 11.1551 2.59458C11.0802 2.6253 11.0122 2.6706 10.9549 2.72784C10.8977 2.78509 10.8524 2.85315 10.8216 2.92805C10.7909 3.00295 10.7754 3.08321 10.776 3.16416C10.7765 3.24512 10.7932 3.32516 10.8249 3.39962C10.8567 3.47409 10.903 3.54149 10.961 3.59793L11.739 4.38793Z"/>
    <path d="M5.38 9.99893C6.20061 9.99895 7.00861 9.79699 7.73271 9.41087C8.45681 9.02476 9.07475 8.46635 9.532 7.78493C9.62244 7.65033 9.6557 7.48532 9.62447 7.3262C9.59325 7.16707 9.50009 7.02687 9.36549 6.93643C9.2309 6.84599 9.06588 6.81273 8.90676 6.84395C8.74764 6.87518 8.60744 6.96833 8.517 7.10293C8.06607 7.77531 7.41109 8.28505 6.64857 8.55704C5.88604 8.82904 5.05631 8.8489 4.28165 8.61369C3.50699 8.37848 2.82837 7.90065 2.3458 7.25061C1.86323 6.60057 1.60224 5.81271 1.60128 5.00313C1.60032 4.19355 1.85944 3.40507 2.34047 2.75389C2.82149 2.10271 3.49898 1.62327 4.27308 1.38622C5.04718 1.14918 5.87695 1.16707 6.64012 1.43725C7.40329 1.70744 8.05948 2.21563 8.51199 2.88693C8.6027 3.02126 8.74305 3.11406 8.90217 3.14491C9.0613 3.17576 9.22616 3.14213 9.3605 3.05143C9.49483 2.96073 9.58763 2.82038 9.61848 2.66125C9.64933 2.50213 9.6157 2.33726 9.52499 2.20293C9.04197 1.48833 8.3823 0.91083 7.6101 0.526558C6.83789 0.142286 5.97941 -0.0356884 5.11809 0.00992966C4.25676 0.0555477 3.42188 0.32321 2.69459 0.7869C1.96729 1.25059 1.37232 1.89454 0.967483 2.65616C0.562649 3.41779 0.361726 4.27119 0.384238 5.13343C0.406751 5.99568 0.651928 6.83743 1.09595 7.57689C1.53998 8.31636 2.16775 8.92838 2.91825 9.35349C3.66875 9.77859 4.51646 10.0023 5.379 10.0029L5.38 9.99893Z"/>
</svg>
