<svg width="40" height="41" viewBox="0 0 40 41" fill="none" xmlns="http://www.w3.org/2000/svg">
<path d="M20 40C31.0457 40 40 31.0457 40 20C40 8.9543 31.0457 0 20 0C8.9543 0 0 8.9543 0 20C0 31.0457 8.9543 40 20 40Z" fill="#7D1FB7"/>
<path d="M32.032 12.937V15.278C33.453 15.222 34.564 14.722 34.564 14.103C34.564 13.484 33.445 12.993 32.032 12.937Z" fill="#FFD05B"/>
<path d="M34.551 14.112V14.168L34.543 14.224C34.416 14.788 33.36 15.232 32.027 15.28H30.151V14.843C30.7801 14.8674 31.4101 14.8302 32.032 14.732C32.9069 14.6316 33.7424 14.3121 34.461 13.803C34.5213 13.8946 34.5527 14.0023 34.551 14.112Z" fill="#F9B54C"/>
<path d="M7.969 12.937V15.278C6.548 15.222 5.437 14.722 5.437 14.103C5.437 13.484 6.556 12.993 7.969 12.937Z" fill="#FFD05B"/>
<path d="M5.444 14.112V14.168L5.452 14.224C5.579 14.788 6.635 15.232 7.968 15.28H9.844V14.843C9.21488 14.8674 8.58489 14.8302 7.96301 14.732C7.09147 14.6297 6.25964 14.3098 5.544 13.802C5.47996 13.8928 5.44508 14.0009 5.444 14.112Z" fill="#F9B54C"/>
<path d="M32.952 24.5401H30.135C30.1109 24.5397 30.0869 24.5441 30.0645 24.5532C30.0421 24.5622 30.0218 24.5757 30.0047 24.5927C29.9876 24.6098 29.9742 24.6302 29.9651 24.6526C29.9561 24.6749 29.9516 24.6989 29.952 24.723V29.874C29.9516 29.8982 29.9561 29.9222 29.9651 29.9446C29.9742 29.967 29.9876 29.9873 30.0047 30.0044C30.0218 30.0214 30.0421 30.0349 30.0645 30.0439C30.0869 30.053 30.1109 30.0575 30.135 30.0571H32.952C32.9761 30.0575 33.0001 30.053 33.0225 30.0439C33.0449 30.0349 33.0652 30.0214 33.0823 30.0044C33.0994 29.9873 33.1128 29.967 33.1219 29.9446C33.1309 29.9222 33.1354 29.8982 33.135 29.874V24.723C33.1354 24.6989 33.1309 24.6749 33.1219 24.6526C33.1128 24.6302 33.0994 24.6098 33.0823 24.5927C33.0652 24.5757 33.0449 24.5622 33.0225 24.5532C33.0001 24.5441 32.9761 24.5397 32.952 24.5401Z" fill="#2B3B4E"/>
<path d="M9.857 24.5401H7.047C7.02286 24.5397 6.99887 24.5441 6.97649 24.5532C6.9541 24.5622 6.93377 24.5757 6.9167 24.5927C6.89962 24.6098 6.88615 24.6302 6.8771 24.6526C6.86805 24.6749 6.8636 24.6989 6.864 24.723V29.874C6.8636 29.8982 6.86805 29.9222 6.8771 29.9446C6.88615 29.967 6.89962 29.9873 6.9167 30.0044C6.93377 30.0214 6.9541 30.0349 6.97649 30.0439C6.99887 30.053 7.02286 30.0575 7.047 30.0571H9.865C9.88914 30.0575 9.91313 30.053 9.93551 30.0439C9.9579 30.0349 9.97823 30.0214 9.9953 30.0044C10.0124 29.9873 10.0258 29.967 10.0349 29.9446C10.044 29.9222 10.0484 29.8982 10.048 29.874V24.723C10.0457 24.6739 10.0246 24.6275 9.98904 24.5934C9.95349 24.5594 9.90622 24.5403 9.857 24.5401Z" fill="#2B3B4E"/>
<path d="M33.373 25.4101V18.4371C33.0291 17.9026 32.724 17.3442 32.46 16.7661C31.6073 13.3072 30.1517 10.0257 28.16 7.07207C25.6087 6.79037 23.0438 6.65015 20.477 6.65206V6.64307C20.35 6.64307 20.191 6.64306 20.001 6.65206C19.811 6.66106 19.652 6.64307 19.525 6.64307V6.65206C16.9582 6.65038 14.3933 6.7906 11.842 7.07207C9.8538 10.0276 8.3985 13.3085 7.54201 16.7661C7.27618 17.3433 6.97113 17.9016 6.629 18.4371V25.4101C6.629 25.4101 6.153 28.0431 9.772 28.1751H30.224C33.849 28.0431 33.373 25.4101 33.373 25.4101Z" fill="#FFD05B"/>
<path d="M27.698 24.119C28.79 23.3995 30.1228 23.1428 31.404 23.405C31.6604 23.9294 31.8396 24.4882 31.936 25.064C31.9668 25.2921 31.9509 25.5241 31.8893 25.746C31.8277 25.9678 31.7216 26.1748 31.5776 26.3545C31.4336 26.5341 31.2546 26.6826 31.0515 26.791C30.8484 26.8994 30.6254 26.9654 30.396 26.985L29.245 27.096L27.698 24.119Z" fill="#F9B54C"/>
<path d="M11.968 24.119L10.428 27.095L9.277 26.984C9.02165 26.9592 8.77502 26.878 8.555 26.746C8.26915 26.5761 8.03938 26.3261 7.89417 26.027C7.74895 25.7278 7.69466 25.3927 7.738 25.063L7.762 24.896C7.86494 24.3795 8.03295 23.8782 8.262 23.404C9.54328 23.1421 10.8761 23.3992 11.968 24.119Z" fill="#F9B54C"/>
<path d="M27.701 28.1739L25.376 23.6819H14.626L12.301 28.1739H27.701Z" fill="#F9B54C"/>
<path d="M32.222 18.4519C32.222 18.4519 30.016 19.9919 20 19.9759C9.984 19.9919 7.778 18.4519 7.778 18.4519L7.564 20.0789C8.61349 21.0035 9.89444 21.6257 11.27 21.8789L12.024 21.2789C13.476 22.1679 18.088 22.4849 20 22.5889C21.913 22.4889 26.524 22.1679 27.976 21.2789L28.73 21.8789C30.1061 21.6272 31.3874 21.0048 32.436 20.0789L32.222 18.4519Z" fill="white"/>
<path d="M32.334 17.3571L31.477 16.9571L30.048 18.0051L31.348 14.5681C31.75 15.4702 32.0797 16.4028 32.334 17.3571Z" fill="#F9B54C"/>
<path d="M9.945 18.0082L8.516 16.9602L7.659 17.3602C7.91493 16.4087 8.24116 15.4775 8.635 14.5742L9.945 18.0082Z" fill="#F9B54C"/>
<path d="M19.73 21.753C20.4049 21.753 20.952 21.5009 20.952 21.19C20.952 20.879 20.4049 20.627 19.73 20.627C19.0551 20.627 18.508 20.879 18.508 21.19C18.508 21.5009 19.0551 21.753 19.73 21.753Z" stroke="#324A5E" stroke-width="0.25" stroke-miterlimit="10"/>
<path d="M27.103 19.6511L26.166 21.8971C24.1274 22.2786 22.0635 22.5092 19.991 22.5871C17.9191 22.5009 15.8558 22.2703 13.816 21.8971L12.889 19.6511C15.2476 19.8938 17.6181 20.0023 19.989 19.9761C22.3645 19.9987 24.7394 19.8902 27.103 19.6511Z" fill="#2B3B4E"/>
<path d="M20 22.064C20.8549 22.064 21.548 21.7049 21.548 21.262C21.548 20.819 20.8549 20.46 20 20.46C19.1451 20.46 18.452 20.819 18.452 21.262C18.452 21.7049 19.1451 22.064 20 22.064Z" fill="#E6E9EE"/>
<path d="M24.649 8.76206L24.371 9.29407H15.625L15.347 8.76206C16.855 8.69906 18.447 8.66206 19.522 8.65106V8.64307C19.649 8.64307 19.808 8.64306 19.998 8.65106C20.188 8.65906 20.347 8.64307 20.474 8.64307V8.65106C21.549 8.66706 23.143 8.69906 24.649 8.76206Z" fill="#F9B54C"/>
<path d="M29.285 21.4681C29.7716 21.4681 30.166 21.0736 30.166 20.5871C30.166 20.1005 29.7716 19.7061 29.285 19.7061C28.7984 19.7061 28.404 20.1005 28.404 20.5871C28.404 21.0736 28.7984 21.4681 29.285 21.4681Z" fill="#ACB3BA"/>
<path d="M31.079 20.5149C31.3988 20.5149 31.658 20.2557 31.658 19.9359C31.658 19.6162 31.3988 19.3569 31.079 19.3569C30.7592 19.3569 30.5 19.6162 30.5 19.9359C30.5 20.2557 30.7592 20.5149 31.079 20.5149Z" fill="#ACB3BA"/>
<path d="M10.714 21.428C11.2006 21.428 11.595 21.0336 11.595 20.547C11.595 20.0605 11.2006 19.666 10.714 19.666C10.2274 19.666 9.833 20.0605 9.833 20.547C9.833 21.0336 10.2274 21.428 10.714 21.428Z" fill="#ACB3BA"/>
<path d="M8.92 20.483C9.23977 20.483 9.499 20.2237 9.499 19.904C9.499 19.5842 9.23977 19.325 8.92 19.325C8.60023 19.325 8.341 19.5842 8.341 19.904C8.341 20.2237 8.60023 20.483 8.92 20.483Z" fill="#ACB3BA"/>
<path d="M23.746 24.6748H16.254V27.3098H23.746V24.6748Z" fill="white"/>
<path d="M30.762 14.7229L27.968 9.79388C27.9439 9.75461 27.9101 9.72227 27.8698 9.7C27.8295 9.67774 27.7841 9.66633 27.738 9.66688C25.317 9.80988 21.73 9.81788 20.087 9.80988C18.444 9.81788 14.857 9.80988 12.436 9.66688C12.3894 9.66287 12.3427 9.67281 12.3017 9.69542C12.2607 9.71803 12.2274 9.7523 12.206 9.79388L9.41201 14.7229C9.39125 14.7591 9.38014 14.8001 9.37974 14.8419C9.37935 14.8836 9.38968 14.9248 9.40975 14.9614C9.42982 14.998 9.45895 15.0289 9.49437 15.0511C9.52978 15.0732 9.57028 15.0859 9.612 15.0879C11.033 15.1589 16.001 15.3879 20.088 15.4049C24.175 15.3969 29.136 15.1589 30.564 15.0879C30.6052 15.0848 30.645 15.0714 30.6796 15.0489C30.7143 15.0265 30.7428 14.9957 30.7625 14.9594C30.7822 14.9231 30.7925 14.8824 30.7924 14.8411C30.7923 14.7997 30.7819 14.7591 30.762 14.7229Z" fill="white"/>
<path d="M2.706 30.0481C4.46496 33.0758 6.98802 35.5887 10.0228 37.3354C13.0577 39.0821 16.4979 40.0015 19.9995 40.0015C23.5011 40.0015 26.9413 39.0821 29.9762 37.3354C33.011 35.5887 35.534 33.0758 37.293 30.0481H2.706Z" fill="#60198C"/>
</svg>
