<svg width="10" height="10" viewBox="0 0 10 10" fill="none" xmlns="http://www.w3.org/2000/svg">
<path d="M5.212 0L0.342001 4.88C0.123142 5.09999 0.000282288 5.39768 0.000282288 5.708C0.000282288 6.01832 0.123142 6.31601 0.342001 6.536L3.457 9.656C3.56495 9.76475 3.6933 9.85112 3.8347 9.91015C3.97611 9.96919 4.12777 9.99972 4.281 10V10C4.43483 10.0004 4.58722 9.97026 4.72934 9.91138C4.87146 9.85251 5.0005 9.76605 5.109 9.657L9.994 4.778V0H5.212ZM9.218 4.454L4.562 9.1C4.52581 9.13629 4.48278 9.16505 4.43541 9.18462C4.38803 9.20418 4.33725 9.21417 4.286 9.214V9.214C4.23475 9.21417 4.18397 9.20418 4.13659 9.18462C4.08922 9.16505 4.0462 9.13629 4.01 9.1L0.894001 5.984C0.820967 5.91071 0.779958 5.81147 0.779958 5.708C0.779958 5.60453 0.820967 5.50529 0.894001 5.432L5.537 0.781H9.218V4.454Z" fill="#60198C"/>
<path d="M7.343 3.28101C7.68818 3.28101 7.968 3.00118 7.968 2.65601C7.968 2.31083 7.68818 2.03101 7.343 2.03101C6.99782 2.03101 6.718 2.31083 6.718 2.65601C6.718 3.00118 6.99782 3.28101 7.343 3.28101Z" fill="#60198C"/>
</svg>
