<svg viewBox="0 0 9 11" fill="none" xmlns="http://www.w3.org/2000/svg">
<path d="M8.281 7.656H7.89C7.79882 7.66004 7.70792 7.64322 7.62423 7.60683C7.54053 7.57044 7.46624 7.51543 7.407 7.446C7.24625 7.22126 7.16849 6.94769 7.187 6.672V3.984C7.18384 3.24458 6.91313 2.5313 6.4249 1.97597C5.93667 1.42065 5.26393 1.06083 4.531 0.963V0H3.75V0.963C3.01707 1.06083 2.34433 1.42065 1.8561 1.97597C1.36787 2.5313 1.09716 3.24458 1.094 3.984V6.8C1.10741 7.03696 1.0322 7.27043 0.882999 7.455C0.819927 7.5214 0.743418 7.57359 0.658577 7.60808C0.573736 7.64257 0.482513 7.65856 0.390999 7.655H0V8.75H3.153C3.1172 8.89934 3.11571 9.05485 3.14865 9.20484C3.1816 9.35484 3.24812 9.49541 3.34321 9.616C3.4383 9.73659 3.5595 9.83405 3.69768 9.90106C3.83586 9.96807 3.98743 10.0029 4.141 10.0029C4.29457 10.0029 4.44614 9.96807 4.58432 9.90106C4.7225 9.83405 4.84369 9.73659 4.93879 9.616C5.03388 9.49541 5.1004 9.35484 5.13334 9.20484C5.16629 9.05485 5.16481 8.89934 5.129 8.75H8.282L8.281 7.656ZM4.141 9.219C4.09472 9.219 4.04948 9.20528 4.011 9.17956C3.97252 9.15385 3.94252 9.11731 3.92481 9.07455C3.9071 9.03179 3.90247 8.98474 3.9115 8.93935C3.92052 8.89396 3.94281 8.85226 3.97554 8.81954C4.00826 8.78681 4.04996 8.76453 4.09535 8.7555C4.14074 8.74647 4.18779 8.7511 4.23055 8.76881C4.27331 8.78652 4.30985 8.81652 4.33556 8.855C4.36128 8.89348 4.375 8.93872 4.375 8.985C4.37474 9.04698 4.35 9.10635 4.30617 9.15017C4.26234 9.194 4.20298 9.21874 4.141 9.219ZM1.469 7.969C1.7446 7.64315 1.88929 7.22653 1.875 6.8V3.984C1.87725 3.38966 2.1121 2.81983 2.52927 2.39649C2.94643 1.97316 3.51276 1.72997 4.107 1.719H4.173C4.76724 1.72997 5.33357 1.97316 5.75073 2.39649C6.1679 2.81983 6.40275 3.38966 6.405 3.984V6.673C6.38421 7.13385 6.52774 7.58711 6.81 7.952L6.824 7.969H1.469Z" fill="#323232"/>
</svg>
