<svg viewBox="0 0 9 11" fill="none" xmlns="http://www.w3.org/2000/svg">
<path d="M3.762 5.58694L2.497 4.38693L1.958 4.95294L3.806 6.71194L6.62101 3.57693L6.04 3.05493L3.762 5.58694Z" fill="#323232"/>
<path d="M7.394 1.273C6.58537 1.09729 5.81917 0.764305 5.139 0.293003C4.85619 0.102038 4.52274 0 4.1815 0C3.84026 0 3.50681 0.102038 3.224 0.293003C2.54383 0.764305 1.77763 1.09729 0.968998 1.273C0.697852 1.32113 0.452282 1.46312 0.275303 1.67411C0.098324 1.88509 0.00122194 2.15162 0.000999451 2.427V4.785C0.00627335 5.58248 0.230421 6.36319 0.648998 7.042C1.02089 7.64688 1.48866 8.18727 2.034 8.642C2.63816 9.15732 3.30718 9.59134 4.024 9.933L4.183 10.004L4.342 9.933C5.05885 9.5914 5.72787 9.15737 6.332 8.642C6.87734 8.18727 7.34511 7.64688 7.717 7.042C8.13562 6.36321 8.35978 5.58248 8.365 4.785V2.428C8.36489 2.15201 8.26746 1.8849 8.08986 1.67365C7.91226 1.4624 7.66586 1.32053 7.394 1.273ZM7.581 4.785C7.54927 5.42157 7.37642 6.04313 7.07497 6.60469C6.77352 7.16626 6.35101 7.65379 5.838 8.032C5.33031 8.46305 4.77465 8.83416 4.182 9.138C3.491 8.787 0.781998 7.252 0.781998 4.785V2.428C0.782287 2.33587 0.815022 2.24678 0.874454 2.17638C0.933887 2.10597 1.01622 2.05875 1.107 2.043C2.02252 1.84827 2.8905 1.47443 3.661 0.943003C3.81483 0.838966 3.99629 0.783366 4.182 0.783366C4.36771 0.783366 4.54917 0.838966 4.703 0.943003C5.4735 1.47443 6.34148 1.84827 7.257 2.043C7.34778 2.05875 7.43011 2.10597 7.48954 2.17638C7.54898 2.24678 7.58171 2.33587 7.582 2.428L7.581 4.785Z" fill="#323232"/>
</svg>
