<svg width="14" height="14" viewBox="0 0 14 14" fill="none" xmlns="http://www.w3.org/2000/svg">
<path d="M8.705 2.32485L11.553 5.17285L4.344 12.3818L1.499 9.53385L8.705 2.32485ZM13.714 1.63785L12.444 0.367848C12.2078 0.132135 11.8877 -0.000244141 11.554 -0.000244141C11.2203 -0.000244141 10.9002 0.132135 10.664 0.367848L9.447 1.58385L12.299 4.43185L13.714 3.01085C13.896 2.82876 13.9983 2.58182 13.9983 2.32435C13.9983 2.06687 13.896 1.81994 13.714 1.63785ZM0.00799937 13.5368C-0.00406686 13.5906 -0.00224611 13.6465 0.0132898 13.6993C0.0288257 13.7521 0.0575643 13.8001 0.0967931 13.8387C0.136022 13.8773 0.184447 13.9053 0.237498 13.9201C0.290549 13.9348 0.346475 13.9357 0.399999 13.9228L3.574 13.1538L0.726999 10.3048L0.00799937 13.5368Z" fill="white"/>
</svg>
