<svg viewBox="0 0 10 11" fill="none" xmlns="http://www.w3.org/2000/svg">
<path d="M8.536 7.46398C8.00153 6.92736 7.35172 6.51969 6.636 6.27198C7.14493 5.92282 7.52877 5.41995 7.73134 4.83695C7.93392 4.25395 7.9446 3.62142 7.76182 3.03192C7.57904 2.44241 7.2124 1.92687 6.71554 1.56073C6.21868 1.19459 5.61769 0.99707 5.0005 0.99707C4.38331 0.99707 3.78232 1.19459 3.28546 1.56073C2.7886 1.92687 2.42196 2.44241 2.23918 3.03192C2.0564 3.62142 2.06708 4.25395 2.26966 4.83695C2.47223 5.41995 2.85607 5.92282 3.365 6.27198C2.38265 6.61315 1.53086 7.25166 0.927872 8.0989C0.324878 8.94613 0.000584688 9.96007 0 11H0.781C0.772386 10.4405 0.875136 9.88496 1.08327 9.3656C1.2914 8.84624 1.60076 8.37347 1.99334 7.9748C2.38592 7.57613 2.85387 7.25953 3.36997 7.04342C3.88606 6.82732 4.43999 6.71603 4.9995 6.71603C5.55901 6.71603 6.11294 6.82732 6.62903 7.04342C7.14513 7.25953 7.61308 7.57613 8.00566 7.9748C8.39824 8.37347 8.7076 8.84624 8.91573 9.3656C9.12386 9.88496 9.22661 10.4405 9.218 11H10C10.0019 10.3431 9.87353 9.69228 9.62223 9.08532C9.37094 8.47836 9.00173 7.92728 8.536 7.46398ZM5 5.99998C4.58288 5.99998 4.17513 5.87629 3.8283 5.64455C3.48148 5.41281 3.21116 5.08343 3.05154 4.69806C2.89191 4.31269 2.85015 3.88864 2.93152 3.47953C3.0129 3.07043 3.21376 2.69464 3.50871 2.39969C3.80366 2.10474 4.17945 1.90388 4.58855 1.8225C4.99766 1.74113 5.42171 1.78289 5.80708 1.94252C6.19245 2.10214 6.52183 2.37246 6.75357 2.71928C6.98531 3.0661 7.109 3.47386 7.109 3.89098C7.10821 4.45008 6.88575 4.98605 6.49041 5.38139C6.09507 5.77673 5.5591 5.99919 5 5.99998Z" fill="#323232"/>
</svg>
