<svg width="13" height="16" viewBox="0 0 13 16" fill="none" xmlns="http://www.w3.org/2000/svg">
<path d="M10.967 1.78789H8.93802V0.469889C8.93789 0.407442 8.92536 0.345642 8.90113 0.288086C8.8769 0.23053 8.84147 0.178367 8.7969 0.134631C8.75232 0.0908942 8.69949 0.0564584 8.64149 0.0333265C8.58348 0.0101946 8.52146 -0.00117163 8.45902 -0.000110825C8.44046 -0.00124123 8.42219 0.0048505 8.40802 0.0168892C8.39836 0.00778159 8.38615 0.00184905 8.37302 -0.000110825H3.54102C3.47908 -0.000917148 3.41759 0.010689 3.36021 0.0340233C3.30282 0.0573575 3.25069 0.0919472 3.20689 0.135752C3.16308 0.179558 3.12849 0.231691 3.10516 0.289078C3.08182 0.346466 3.07022 0.407945 3.07102 0.469889V1.78789H1.03502C0.898617 1.78614 0.763247 1.81172 0.636886 1.86312C0.510526 1.91451 0.395729 1.99068 0.29927 2.08714C0.202812 2.1836 0.126644 2.29839 0.0752486 2.42475C0.0238533 2.55112 -0.00172365 2.68649 2.27289e-05 2.82289V4.51589H0.900017V14.1549C0.897576 14.2903 0.922447 14.4248 0.973144 14.5504C1.02384 14.676 1.09933 14.7901 1.19509 14.8858C1.29085 14.9816 1.40493 15.0571 1.53052 15.1078C1.6561 15.1585 1.79061 15.1833 1.92602 15.1809H10.077C10.2129 15.1836 10.348 15.1589 10.4742 15.1084C10.6004 15.0579 10.7151 14.9826 10.8117 14.8869C10.9082 14.7912 10.9845 14.6771 11.0361 14.5514C11.0877 14.4256 11.1135 14.2908 11.112 14.1549V4.51589H12.002V2.82289C12.0038 2.68649 11.9782 2.55112 11.9268 2.42475C11.8754 2.29839 11.7992 2.1836 11.7028 2.08714C11.6063 1.99068 11.4915 1.91451 11.3652 1.86312C11.2388 1.81172 11.1034 1.78614 10.967 1.78789ZM4.01102 0.940889H7.98802V1.78789H4.01102V0.940889ZM10.161 14.1559C10.161 14.2159 10.135 14.2419 10.075 14.2419H1.92402C1.86402 14.2419 1.83802 14.2159 1.83802 14.1559V4.51589H10.16L10.161 14.1559ZM11.051 3.57589H0.951019V2.82289C0.951019 2.76289 0.977018 2.72889 1.03702 2.72889H10.967C11.027 2.72889 11.053 2.76289 11.053 2.82289L11.051 3.57589Z" fill="white"/>
<path d="M8.67202 5.6189H7.72302V13.4019H8.67202V5.6189Z" fill="white"/>
<path d="M6.483 5.6189H5.534V13.4019H6.483V5.6189Z" fill="white"/>
<path d="M4.29299 5.6189H3.34399V13.4019H4.29299V5.6189Z" fill="white"/>
</svg>
