<svg width="16" height="17" viewBox="0 0 16 17" fill="none" xmlns="http://www.w3.org/2000/svg">
<path d="M15.262 14.6629L11.692 10.9499C12.5779 9.89438 13.0772 8.56819 13.1074 7.19048C13.1376 5.81277 12.6968 4.46599 11.858 3.37268C11.0191 2.27937 9.83238 1.50496 8.49384 1.17741C7.15529 0.849866 5.74505 0.988785 4.49614 1.57121C3.24723 2.15364 2.2344 3.14473 1.625 4.3807C1.01559 5.61667 0.846099 7.02356 1.14451 8.36891C1.44293 9.71425 2.1914 10.9175 3.26624 11.7799C4.34108 12.6423 5.67798 13.1122 7.05602 13.1119C8.29878 13.114 9.51144 12.7296 10.526 12.0119L14.126 15.7529C14.1982 15.8277 14.2845 15.8875 14.3798 15.929C14.4752 15.9704 14.5778 15.9927 14.6817 15.9945C14.7857 15.9963 14.889 15.9776 14.9857 15.9395C15.0825 15.9014 15.1707 15.8446 15.2455 15.7724C15.3203 15.7002 15.3801 15.6139 15.4216 15.5186C15.463 15.4232 15.4853 15.3207 15.4871 15.2167C15.4889 15.1127 15.4703 15.0095 15.4321 14.9127C15.394 14.816 15.3372 14.7277 15.265 14.6529L15.262 14.6629ZM7.05602 2.57991C7.94129 2.57991 8.80668 2.84242 9.54275 3.33425C10.2788 3.82608 10.8525 4.52514 11.1913 5.34302C11.5301 6.1609 11.6187 7.06088 11.446 7.92914C11.2733 8.79739 10.847 9.59494 10.221 10.2209C9.59505 10.8469 8.7975 11.2732 7.92925 11.4459C7.06099 11.6186 6.16101 11.53 5.34313 11.1912C4.52525 10.8524 3.82619 10.2787 3.33436 9.54264C2.84253 8.80657 2.58002 7.94118 2.58002 7.05591C2.58134 5.86921 3.05335 4.73149 3.89247 3.89236C4.7316 3.05324 5.86932 2.58123 7.05602 2.57991Z" fill="white" stroke="white"/>
</svg>
