<svg width="13" height="12" viewBox="0 0 13 12" fill="none" xmlns="http://www.w3.org/2000/svg">
<path d="M3.6 9.6C3.36266 9.6 3.13065 9.67038 2.93332 9.80224C2.73598 9.93409 2.58217 10.1215 2.49134 10.3408C2.40052 10.5601 2.37676 10.8013 2.42306 11.0341C2.46936 11.2669 2.58365 11.4807 2.75147 11.6485C2.91929 11.8164 3.13311 11.9306 3.36589 11.9769C3.59867 12.0232 3.83995 11.9995 4.05922 11.9087C4.27849 11.8178 4.46591 11.664 4.59776 11.4667C4.72962 11.2693 4.8 11.0373 4.8 10.8C4.8 10.4817 4.67357 10.1765 4.44853 9.95147C4.22348 9.72643 3.91826 9.6 3.6 9.6ZM0 0V1.2H1.2L3.36 5.76L2.52 7.2C2.45136 7.39319 2.41094 7.59527 2.4 7.8C2.4 8.11826 2.52643 8.42348 2.75147 8.64853C2.97652 8.87357 3.28174 9 3.6 9H10.8V7.8H3.84C3.80887 7.79789 3.77955 7.78457 3.75749 7.76251C3.73542 7.74045 3.72211 7.71113 3.72 7.68V7.62L4.26 6.6H8.7C8.90965 6.60833 9.11728 6.5562 9.29813 6.44982C9.47898 6.34344 9.62542 6.18729 9.72 6L11.88 2.1C11.924 2.06448 11.9582 2.01823 11.9792 1.96569C12.0002 1.91316 12.0074 1.8561 12 1.8C12.0048 1.71995 11.9926 1.63979 11.9641 1.56482C11.9357 1.48984 11.8917 1.42175 11.835 1.36505C11.7782 1.30834 11.7102 1.26431 11.6352 1.23586C11.5602 1.20741 11.48 1.19519 11.4 1.2H2.52L1.98 0H0ZM9.6 9.6C9.36266 9.6 9.13065 9.67038 8.93332 9.80224C8.73598 9.93409 8.58217 10.1215 8.49134 10.3408C8.40052 10.5601 8.37676 10.8013 8.42306 11.0341C8.46936 11.2669 8.58365 11.4807 8.75147 11.6485C8.91929 11.8164 9.13311 11.9306 9.36589 11.9769C9.59867 12.0232 9.83995 11.9995 10.0592 11.9087C10.2785 11.8178 10.4659 11.664 10.5978 11.4667C10.7296 11.2693 10.8 11.0373 10.8 10.8C10.8 10.4817 10.6736 10.1765 10.4485 9.95147C10.2235 9.72643 9.91826 9.6 9.6 9.6Z" fill="white"/>
</svg>
